<mxfile host="Electron" modified="2023-09-25T04:25:55.293Z" agent="Mozilla/5.0 (X11; Linux x86_64) AppleWebKit/537.36 (KHTML, like Gecko) draw.io/21.7.5 Chrome/114.0.5735.289 Electron/25.8.1 Safari/537.36" etag="y0sZnOEOVlNGmRT7GOME" version="21.7.5" type="device" pages="2">
  <diagram name="第 1 页" id="goWaC815Vzy2H9gtjDGp">
    <mxGraphModel dx="1728" dy="988" grid="1" gridSize="10" guides="1" tooltips="1" connect="1" arrows="1" fold="1" page="1" pageScale="1" pageWidth="827" pageHeight="1169" math="0" shadow="0">
      <root>
        <mxCell id="0" />
        <mxCell id="1" parent="0" />
        <mxCell id="gE2rsSJvmv8z6mwhC9pg-9" style="edgeStyle=orthogonalEdgeStyle;rounded=0;orthogonalLoop=1;jettySize=auto;html=1;exitX=1;exitY=0.5;exitDx=0;exitDy=0;entryX=0;entryY=0.5;entryDx=0;entryDy=0;curved=1;" edge="1" parent="1" source="gE2rsSJvmv8z6mwhC9pg-2" target="gE2rsSJvmv8z6mwhC9pg-5">
          <mxGeometry relative="1" as="geometry" />
        </mxCell>
        <mxCell id="gE2rsSJvmv8z6mwhC9pg-13" style="edgeStyle=orthogonalEdgeStyle;rounded=0;orthogonalLoop=1;jettySize=auto;html=1;exitX=1;exitY=0.5;exitDx=0;exitDy=0;entryX=0;entryY=0.5;entryDx=0;entryDy=0;curved=1;" edge="1" parent="1" source="gE2rsSJvmv8z6mwhC9pg-2" target="gE2rsSJvmv8z6mwhC9pg-44">
          <mxGeometry relative="1" as="geometry">
            <mxPoint x="280" y="421.25" as="targetPoint" />
          </mxGeometry>
        </mxCell>
        <mxCell id="gE2rsSJvmv8z6mwhC9pg-17" style="edgeStyle=orthogonalEdgeStyle;rounded=0;orthogonalLoop=1;jettySize=auto;html=1;exitX=1;exitY=0.5;exitDx=0;exitDy=0;entryX=0;entryY=0.5;entryDx=0;entryDy=0;curved=1;" edge="1" parent="1" source="gE2rsSJvmv8z6mwhC9pg-2" target="gE2rsSJvmv8z6mwhC9pg-51">
          <mxGeometry relative="1" as="geometry">
            <mxPoint x="280" y="491.25" as="targetPoint" />
          </mxGeometry>
        </mxCell>
        <mxCell id="gE2rsSJvmv8z6mwhC9pg-64" style="edgeStyle=orthogonalEdgeStyle;rounded=0;orthogonalLoop=1;jettySize=auto;html=1;exitX=0.5;exitY=0;exitDx=0;exitDy=0;entryX=0.5;entryY=1;entryDx=0;entryDy=0;" edge="1" parent="1" source="gE2rsSJvmv8z6mwhC9pg-2" target="gE2rsSJvmv8z6mwhC9pg-63">
          <mxGeometry relative="1" as="geometry" />
        </mxCell>
        <mxCell id="gE2rsSJvmv8z6mwhC9pg-2" value="Operation" style="rounded=1;whiteSpace=wrap;html=1;fontSize=20;fillColor=#e1d5e7;strokeColor=#9673a6;" vertex="1" parent="1">
          <mxGeometry x="80" y="391.25" width="120" height="60" as="geometry" />
        </mxCell>
        <mxCell id="gE2rsSJvmv8z6mwhC9pg-5" value="" style="rounded=0;whiteSpace=wrap;html=1;fillColor=#f8cecc;strokeColor=#b85450;" vertex="1" parent="1">
          <mxGeometry x="280" y="360" width="20" height="20" as="geometry" />
        </mxCell>
        <mxCell id="gE2rsSJvmv8z6mwhC9pg-6" value="" style="rounded=0;whiteSpace=wrap;html=1;fillColor=#f8cecc;strokeColor=#b85450;" vertex="1" parent="1">
          <mxGeometry x="300" y="360" width="20" height="20" as="geometry" />
        </mxCell>
        <mxCell id="gE2rsSJvmv8z6mwhC9pg-7" value="" style="rounded=0;whiteSpace=wrap;html=1;fillColor=#f8cecc;strokeColor=#b85450;" vertex="1" parent="1">
          <mxGeometry x="320" y="360" width="20" height="20" as="geometry" />
        </mxCell>
        <mxCell id="gE2rsSJvmv8z6mwhC9pg-19" value="OperandsVec" style="text;html=1;strokeColor=none;fillColor=none;align=center;verticalAlign=middle;whiteSpace=wrap;rounded=0;fontSize=21;" vertex="1" parent="1">
          <mxGeometry x="280" y="330" width="140" height="30" as="geometry" />
        </mxCell>
        <mxCell id="gE2rsSJvmv8z6mwhC9pg-20" value="ResultsVec" style="text;html=1;strokeColor=none;fillColor=none;align=center;verticalAlign=middle;whiteSpace=wrap;rounded=0;fontSize=21;" vertex="1" parent="1">
          <mxGeometry x="280" y="381.25" width="140" height="30" as="geometry" />
        </mxCell>
        <mxCell id="gE2rsSJvmv8z6mwhC9pg-21" value="AttributesVec" style="text;html=1;strokeColor=none;fillColor=none;align=center;verticalAlign=middle;whiteSpace=wrap;rounded=0;fontSize=21;" vertex="1" parent="1">
          <mxGeometry x="280" y="431.25" width="140" height="30" as="geometry" />
        </mxCell>
        <mxCell id="gE2rsSJvmv8z6mwhC9pg-25" style="edgeStyle=orthogonalEdgeStyle;rounded=0;orthogonalLoop=1;jettySize=auto;html=1;exitX=0.5;exitY=0;exitDx=0;exitDy=0;entryX=0.5;entryY=1;entryDx=0;entryDy=0;" edge="1" parent="1" source="gE2rsSJvmv8z6mwhC9pg-22" target="gE2rsSJvmv8z6mwhC9pg-2">
          <mxGeometry relative="1" as="geometry" />
        </mxCell>
        <mxCell id="gE2rsSJvmv8z6mwhC9pg-22" value="Operation*" style="rounded=1;whiteSpace=wrap;html=1;fontSize=20;fillColor=#d5e8d4;strokeColor=#82b366;" vertex="1" parent="1">
          <mxGeometry x="80" y="520" width="120" height="60" as="geometry" />
        </mxCell>
        <mxCell id="gE2rsSJvmv8z6mwhC9pg-27" style="edgeStyle=orthogonalEdgeStyle;rounded=0;orthogonalLoop=1;jettySize=auto;html=1;exitX=0;exitY=0.5;exitDx=0;exitDy=0;entryX=1;entryY=0.5;entryDx=0;entryDy=0;" edge="1" parent="1" source="gE2rsSJvmv8z6mwhC9pg-26" target="gE2rsSJvmv8z6mwhC9pg-22">
          <mxGeometry relative="1" as="geometry" />
        </mxCell>
        <mxCell id="gE2rsSJvmv8z6mwhC9pg-26" value="AddOp" style="rounded=1;whiteSpace=wrap;html=1;fontSize=20;fillColor=#d5e8d4;strokeColor=#82b366;" vertex="1" parent="1">
          <mxGeometry x="280" y="520" width="120" height="60" as="geometry" />
        </mxCell>
        <mxCell id="gE2rsSJvmv8z6mwhC9pg-29" style="edgeStyle=orthogonalEdgeStyle;rounded=0;orthogonalLoop=1;jettySize=auto;html=1;exitX=0;exitY=0.5;exitDx=0;exitDy=0;entryX=1;entryY=0.5;entryDx=0;entryDy=0;curved=1;" edge="1" parent="1" source="gE2rsSJvmv8z6mwhC9pg-28" target="gE2rsSJvmv8z6mwhC9pg-22">
          <mxGeometry relative="1" as="geometry" />
        </mxCell>
        <mxCell id="gE2rsSJvmv8z6mwhC9pg-28" value="ConstantOp" style="rounded=1;whiteSpace=wrap;html=1;fontSize=20;fillColor=#d5e8d4;strokeColor=#82b366;" vertex="1" parent="1">
          <mxGeometry x="280" y="610" width="120" height="60" as="geometry" />
        </mxCell>
        <mxCell id="gE2rsSJvmv8z6mwhC9pg-30" value="" style="shape=curlyBracket;whiteSpace=wrap;html=1;rounded=1;labelPosition=left;verticalLabelPosition=middle;align=right;verticalAlign=middle;" vertex="1" parent="1">
          <mxGeometry x="414" y="510" width="20" height="80" as="geometry" />
        </mxCell>
        <mxCell id="gE2rsSJvmv8z6mwhC9pg-32" value="op.getLhs() = this-&amp;gt;p-&amp;gt;operands[0]" style="text;html=1;strokeColor=none;fillColor=none;align=left;verticalAlign=middle;whiteSpace=wrap;rounded=0;fontSize=16;fontFamily=Lucida Console;" vertex="1" parent="1">
          <mxGeometry x="440" y="505" width="360" height="30" as="geometry" />
        </mxCell>
        <mxCell id="gE2rsSJvmv8z6mwhC9pg-33" value="op.getRhs() = this-&amp;gt;p-&amp;gt;operands[1]" style="text;html=1;strokeColor=none;fillColor=none;align=left;verticalAlign=middle;whiteSpace=wrap;rounded=0;fontSize=16;fontFamily=Lucida Console;" vertex="1" parent="1">
          <mxGeometry x="440" y="535" width="360" height="30" as="geometry" />
        </mxCell>
        <mxCell id="gE2rsSJvmv8z6mwhC9pg-34" value="op.getResult() = this-&amp;gt;p-&amp;gt;results[0]" style="text;html=1;strokeColor=none;fillColor=none;align=left;verticalAlign=middle;whiteSpace=wrap;rounded=0;fontSize=16;fontFamily=Lucida Console;" vertex="1" parent="1">
          <mxGeometry x="440" y="565" width="360" height="30" as="geometry" />
        </mxCell>
        <mxCell id="gE2rsSJvmv8z6mwhC9pg-35" value="" style="shape=curlyBracket;whiteSpace=wrap;html=1;rounded=1;labelPosition=left;verticalLabelPosition=middle;align=right;verticalAlign=middle;" vertex="1" parent="1">
          <mxGeometry x="414" y="610" width="20" height="60" as="geometry" />
        </mxCell>
        <mxCell id="gE2rsSJvmv8z6mwhC9pg-36" value="op.getValue() = this-&amp;gt;p-&amp;gt;attributes[0]" style="text;html=1;strokeColor=none;fillColor=none;align=left;verticalAlign=middle;whiteSpace=wrap;rounded=0;fontSize=16;fontFamily=Lucida Console;" vertex="1" parent="1">
          <mxGeometry x="440" y="610" width="370" height="30" as="geometry" />
        </mxCell>
        <mxCell id="gE2rsSJvmv8z6mwhC9pg-38" value="op.getResult() = this-&amp;gt;p-&amp;gt;results[0]" style="text;html=1;strokeColor=none;fillColor=none;align=left;verticalAlign=middle;whiteSpace=wrap;rounded=0;fontSize=16;fontFamily=Lucida Console;" vertex="1" parent="1">
          <mxGeometry x="440" y="640" width="370" height="30" as="geometry" />
        </mxCell>
        <mxCell id="gE2rsSJvmv8z6mwhC9pg-39" value="" style="rounded=0;whiteSpace=wrap;html=1;fillColor=#f8cecc;strokeColor=#b85450;" vertex="1" parent="1">
          <mxGeometry x="340" y="360" width="20" height="20" as="geometry" />
        </mxCell>
        <mxCell id="gE2rsSJvmv8z6mwhC9pg-40" value="" style="rounded=0;whiteSpace=wrap;html=1;fillColor=#f8cecc;strokeColor=#b85450;" vertex="1" parent="1">
          <mxGeometry x="360" y="360" width="20" height="20" as="geometry" />
        </mxCell>
        <mxCell id="gE2rsSJvmv8z6mwhC9pg-42" value="" style="rounded=0;whiteSpace=wrap;html=1;fillColor=#f8cecc;strokeColor=#b85450;" vertex="1" parent="1">
          <mxGeometry x="380" y="360" width="20" height="20" as="geometry" />
        </mxCell>
        <mxCell id="gE2rsSJvmv8z6mwhC9pg-43" value="" style="rounded=0;whiteSpace=wrap;html=1;fillColor=#f8cecc;strokeColor=#b85450;" vertex="1" parent="1">
          <mxGeometry x="400" y="360" width="20" height="20" as="geometry" />
        </mxCell>
        <mxCell id="gE2rsSJvmv8z6mwhC9pg-44" value="" style="rounded=0;whiteSpace=wrap;html=1;fillColor=#ffe6cc;strokeColor=#d79b00;" vertex="1" parent="1">
          <mxGeometry x="280" y="411.25" width="20" height="20" as="geometry" />
        </mxCell>
        <mxCell id="gE2rsSJvmv8z6mwhC9pg-45" value="" style="rounded=0;whiteSpace=wrap;html=1;fillColor=#ffe6cc;strokeColor=#d79b00;" vertex="1" parent="1">
          <mxGeometry x="300" y="411.25" width="20" height="20" as="geometry" />
        </mxCell>
        <mxCell id="gE2rsSJvmv8z6mwhC9pg-46" value="" style="rounded=0;whiteSpace=wrap;html=1;fillColor=#ffe6cc;strokeColor=#d79b00;" vertex="1" parent="1">
          <mxGeometry x="320" y="411.25" width="20" height="20" as="geometry" />
        </mxCell>
        <mxCell id="gE2rsSJvmv8z6mwhC9pg-47" value="" style="rounded=0;whiteSpace=wrap;html=1;fillColor=#ffe6cc;strokeColor=#d79b00;" vertex="1" parent="1">
          <mxGeometry x="340" y="411.25" width="20" height="20" as="geometry" />
        </mxCell>
        <mxCell id="gE2rsSJvmv8z6mwhC9pg-48" value="" style="rounded=0;whiteSpace=wrap;html=1;fillColor=#ffe6cc;strokeColor=#d79b00;" vertex="1" parent="1">
          <mxGeometry x="360" y="411.25" width="20" height="20" as="geometry" />
        </mxCell>
        <mxCell id="gE2rsSJvmv8z6mwhC9pg-49" value="" style="rounded=0;whiteSpace=wrap;html=1;fillColor=#ffe6cc;strokeColor=#d79b00;" vertex="1" parent="1">
          <mxGeometry x="380" y="411.25" width="20" height="20" as="geometry" />
        </mxCell>
        <mxCell id="gE2rsSJvmv8z6mwhC9pg-50" value="" style="rounded=0;whiteSpace=wrap;html=1;fillColor=#ffe6cc;strokeColor=#d79b00;" vertex="1" parent="1">
          <mxGeometry x="400" y="411.25" width="20" height="20" as="geometry" />
        </mxCell>
        <mxCell id="gE2rsSJvmv8z6mwhC9pg-51" value="" style="rounded=0;whiteSpace=wrap;html=1;fillColor=#dae8fc;strokeColor=#6c8ebf;" vertex="1" parent="1">
          <mxGeometry x="280" y="461.25" width="20" height="20" as="geometry" />
        </mxCell>
        <mxCell id="gE2rsSJvmv8z6mwhC9pg-52" value="" style="rounded=0;whiteSpace=wrap;html=1;fillColor=#dae8fc;strokeColor=#6c8ebf;" vertex="1" parent="1">
          <mxGeometry x="300" y="461.25" width="20" height="20" as="geometry" />
        </mxCell>
        <mxCell id="gE2rsSJvmv8z6mwhC9pg-53" value="" style="rounded=0;whiteSpace=wrap;html=1;fillColor=#dae8fc;strokeColor=#6c8ebf;" vertex="1" parent="1">
          <mxGeometry x="320" y="461.25" width="20" height="20" as="geometry" />
        </mxCell>
        <mxCell id="gE2rsSJvmv8z6mwhC9pg-54" value="" style="rounded=0;whiteSpace=wrap;html=1;fillColor=#dae8fc;strokeColor=#6c8ebf;" vertex="1" parent="1">
          <mxGeometry x="340" y="461.25" width="20" height="20" as="geometry" />
        </mxCell>
        <mxCell id="gE2rsSJvmv8z6mwhC9pg-55" value="" style="rounded=0;whiteSpace=wrap;html=1;fillColor=#dae8fc;strokeColor=#6c8ebf;" vertex="1" parent="1">
          <mxGeometry x="360" y="461.25" width="20" height="20" as="geometry" />
        </mxCell>
        <mxCell id="gE2rsSJvmv8z6mwhC9pg-56" value="" style="rounded=0;whiteSpace=wrap;html=1;fillColor=#dae8fc;strokeColor=#6c8ebf;" vertex="1" parent="1">
          <mxGeometry x="380" y="461.25" width="20" height="20" as="geometry" />
        </mxCell>
        <mxCell id="gE2rsSJvmv8z6mwhC9pg-57" value="" style="rounded=0;whiteSpace=wrap;html=1;fillColor=#dae8fc;strokeColor=#6c8ebf;" vertex="1" parent="1">
          <mxGeometry x="400" y="461.25" width="20" height="20" as="geometry" />
        </mxCell>
        <mxCell id="gE2rsSJvmv8z6mwhC9pg-60" value="(*op).getOperands()" style="text;html=1;strokeColor=none;fillColor=none;align=left;verticalAlign=middle;whiteSpace=wrap;rounded=0;fontSize=16;fontFamily=Lucida Console;" vertex="1" parent="1">
          <mxGeometry x="440" y="358.75" width="228" height="22.5" as="geometry" />
        </mxCell>
        <mxCell id="gE2rsSJvmv8z6mwhC9pg-61" value="(*op).getResults()" style="text;html=1;strokeColor=none;fillColor=none;align=left;verticalAlign=middle;whiteSpace=wrap;rounded=0;fontSize=16;fontFamily=Lucida Console;" vertex="1" parent="1">
          <mxGeometry x="440" y="408.75" width="228" height="22.5" as="geometry" />
        </mxCell>
        <mxCell id="gE2rsSJvmv8z6mwhC9pg-62" value="(*op).getAttrDictionary()" style="text;html=1;strokeColor=none;fillColor=none;align=left;verticalAlign=middle;whiteSpace=wrap;rounded=0;fontSize=16;fontFamily=Lucida Console;" vertex="1" parent="1">
          <mxGeometry x="440" y="458.75" width="228" height="22.5" as="geometry" />
        </mxCell>
        <mxCell id="gE2rsSJvmv8z6mwhC9pg-63" value="OpName" style="rounded=1;whiteSpace=wrap;html=1;fontSize=20;fillColor=#e1d5e7;strokeColor=#9673a6;" vertex="1" parent="1">
          <mxGeometry x="95" y="318.75" width="90" height="40" as="geometry" />
        </mxCell>
      </root>
    </mxGraphModel>
  </diagram>
  <diagram id="SADQyiu4NBaW2Nt0h8Mc" name="第 2 页">
    <mxGraphModel dx="1185" dy="677" grid="1" gridSize="10" guides="1" tooltips="1" connect="1" arrows="1" fold="1" page="1" pageScale="1" pageWidth="827" pageHeight="1169" math="0" shadow="0">
      <root>
        <mxCell id="0" />
        <mxCell id="1" parent="0" />
      </root>
    </mxGraphModel>
  </diagram>
</mxfile>
